<svg width="69" height="100" viewBox="0 0 69 100" fill="none" xmlns="http://www.w3.org/2000/svg">
<path d="M41.768 49.6698L34.9802 42.887C33.2409 41.1428 30.8388 40.0663 28.1825 40.0663C22.8799 40.0663 18.5789 44.3672 18.5789 49.6698C18.5789 54.9725 22.8799 59.2734 28.1825 59.2734C30.8388 59.2734 33.2409 58.1969 34.9802 56.4526L41.768 49.6648V49.6698Z" fill="#FF9D4D"/>
<path d="M53.0159 60.9229C50.6137 58.5208 47.1202 58.0872 45.2563 59.9511L41.8624 63.345H41.8574C38.3539 66.8386 33.5197 69.0114 28.1872 69.0114C17.5221 69.0114 8.84555 60.3349 8.84555 49.6698C8.84555 39.0047 17.5221 30.3282 28.1872 30.3282C33.5197 30.3282 38.3539 32.4961 41.8574 35.9996V35.9946L45.2513 39.3885C47.1202 41.2574 50.6087 40.8188 53.0109 38.4167L55.4977 35.9298L64.2142 27.2134C66.6163 24.8112 66.3372 21.208 63.5962 19.2046L39.3755 1.50258C36.6345 -0.500859 32.1492 -0.500859 29.4082 1.50258L5.17757 19.2096C2.43655 21.213 0.193893 25.6335 0.193893 29.0274V70.3172C0.193893 73.711 2.43655 78.1316 5.17757 80.135L29.4032 97.842C32.1442 99.8454 36.6295 99.8454 39.3706 97.842L63.5962 80.135C66.3372 78.1316 66.6163 74.5284 64.2142 72.1262L53.0109 60.9229H53.0159Z" fill="#FF9D4D"/>
<path d="M68.585 35.9698L54.8848 49.6699L68.585 63.375V35.9698Z" fill="#FF9D4D"/>
</svg>
