<svg width="109" height="42" viewBox="0 0 109 42" fill="none" xmlns="http://www.w3.org/2000/svg">
<path d="M47.2402 13.1992C46.6721 12.6161 46.0192 12.1178 45.2817 11.7091C43.9859 10.9915 42.4808 10.6326 40.8163 10.6326C38.8427 10.6326 37.0337 11.1509 35.4389 12.1676C33.8491 13.1843 32.5733 14.5647 31.6463 16.2791C30.7243 17.9885 30.2559 19.9471 30.2559 22.0951C30.2559 24.243 30.7243 26.1568 31.6463 27.8662C32.5683 29.5806 33.8441 30.9561 35.4389 31.9528C37.0337 32.9545 38.8427 33.4628 40.8163 33.4628C42.4858 33.4628 43.9959 33.099 45.3066 32.3864C46.0392 31.9877 46.6871 31.4993 47.2452 30.9311V41.9999H52.5429V11.0861H47.2452V13.2042L47.2402 13.1992ZM45.9146 26.6402C44.8331 27.8263 43.3879 28.4243 41.6187 28.4243C40.4575 28.4243 39.4258 28.1552 38.5437 27.617C37.6616 27.0837 36.9589 26.3262 36.4506 25.3694C35.9422 24.4125 35.6831 23.2912 35.6831 22.0353C35.6831 20.7794 35.9422 19.663 36.4506 18.7062C36.9589 17.7493 37.6616 16.9968 38.5437 16.4635C39.4258 15.9303 40.4575 15.6562 41.6187 15.6562C42.7799 15.6562 43.8563 15.9253 44.7384 16.4635C45.6205 16.9968 46.3133 17.7543 46.8067 18.7062C47.3 19.668 47.5492 20.7894 47.5492 22.0403C47.5492 23.9041 46.996 25.4491 45.9096 26.6402H45.9146Z" fill="#656464"/>
<path d="M62.1264 11.0813H56.8287V33.0095H62.1264V11.0813Z" fill="#656464"/>
<path d="M59.4802 1.19354C58.5981 1.19354 57.8505 1.49754 57.2625 2.10057C56.6794 2.70359 56.3803 3.45613 56.3803 4.33824C56.3803 5.22035 56.6794 5.97289 57.2625 6.57591C57.8505 7.17894 58.5931 7.48294 59.4802 7.48294C60.3673 7.48294 61.1497 7.17894 61.7228 6.57591C62.291 5.97787 62.58 5.22533 62.58 4.34322C62.58 3.46111 62.291 2.70858 61.7228 2.11054C61.1497 1.50751 60.3972 1.19852 59.4802 1.19852V1.19354Z" fill="#656464"/>
<path d="M81.7822 11.0813L75.9712 24.1335L70.1951 11.0813H64.3194L74.2767 32.4363L74.3266 32.541L74.4163 32.7055C74.5708 33.0294 75.1638 33.2736 75.8715 33.2736C76.5792 33.2736 77.1424 33.0394 77.3118 32.7304L77.4264 32.546L87.4287 11.0863H81.7772L81.7822 11.0813Z" fill="#656464"/>
<path d="M16.7551 0.909625C16.5259 0.505948 15.8282 0.211914 15.0009 0.211914C14.1736 0.211914 13.446 0.5209 13.2317 0.934545L13.0921 1.1937L0 33.0045H5.87077L8.28785 26.9394H16.4511C17.5126 26.9394 18.2452 26.4111 18.4795 25.3795L19.242 22.0902H10.2215L14.956 10.2092L19.6506 22.0902L21.5644 26.9394L23.9615 33.0045H29.922L16.9246 1.1937L16.7601 0.909625H16.7551Z" fill="#656464"/>
<path d="M107.652 15.9353C106.755 14.2957 105.509 12.99 103.95 12.048C102.385 11.1061 100.561 10.6277 98.5323 10.6277C96.504 10.6277 94.5155 11.136 92.8011 12.1327C91.0917 13.1345 89.7162 14.505 88.7145 16.2194C87.7127 17.9338 87.2094 19.8874 87.2094 22.0403C87.2094 24.1932 87.7227 26.1568 88.7394 27.8812C89.7561 29.6105 91.1515 30.986 92.8958 31.9678C94.6351 32.9496 96.6236 33.4529 98.8014 33.4529C100.496 33.4529 102.121 33.129 103.636 32.4961C105.151 31.8581 106.461 30.9063 107.523 29.6603L107.961 29.0623L104.234 26.092L104.109 26.2366C103.471 26.9592 102.684 27.5223 101.772 27.8961C100.855 28.2749 99.843 28.4692 98.7616 28.4692C97.5106 28.4692 96.3893 28.1951 95.4325 27.6619C94.4806 27.1286 93.733 26.3562 93.2097 25.3744C92.9954 24.9657 92.821 24.5272 92.6964 24.0637C92.4373 23.3012 92.2927 21.3177 92.7263 19.6631H92.7114C92.7313 19.6033 92.7512 19.5435 92.7712 19.4837C92.7811 19.4538 92.7861 19.4189 92.7961 19.384C92.8011 19.3691 92.811 19.3591 92.816 19.3441C92.9157 19.0501 93.0303 18.766 93.1649 18.5069C93.6583 17.5699 94.361 16.8274 95.253 16.3091C96.1501 15.7908 97.2216 15.5266 98.4426 15.5266C99.6636 15.5266 100.591 15.7609 101.388 16.2194C102.175 16.6779 102.858 17.3507 103.292 18.2128C103.506 18.6414 103.661 19.075 103.77 19.6631C103.79 19.8226 103.79 19.9422 103.79 19.9422H94.2463L94.8793 22.6981C95.0786 23.5803 95.582 24.0637 96.5089 24.0637H107.927C108.51 24.0637 108.714 23.969 108.824 23.4208C108.868 23.1567 108.908 22.9025 108.938 22.6682C108.983 22.2895 109.008 21.9107 109.008 21.5469C109.008 19.4588 108.554 17.5699 107.662 15.9353H107.652Z" fill="#656464"/>
</svg>
