<svg width="109" height="158" viewBox="0 0 109 158" fill="none" xmlns="http://www.w3.org/2000/svg">
<path d="M47.2402 129.199C46.6721 128.616 46.0192 128.118 45.2817 127.709C43.9859 126.991 42.4808 126.633 40.8163 126.633C38.8427 126.633 37.0337 127.151 35.4389 128.168C33.8491 129.184 32.5733 130.565 31.6463 132.279C30.7243 133.989 30.2559 135.947 30.2559 138.095C30.2559 140.243 30.7243 142.157 31.6463 143.866C32.5683 145.581 33.8441 146.956 35.4389 147.953C37.0337 148.955 38.8427 149.463 40.8163 149.463C42.4858 149.463 43.9959 149.099 45.3066 148.386C46.0392 147.988 46.6871 147.499 47.2452 146.931V158H52.5429V127.086H47.2452V129.204L47.2402 129.199ZM45.9146 142.64C44.8331 143.826 43.3879 144.424 41.6187 144.424C40.4575 144.424 39.4258 144.155 38.5437 143.617C37.6616 143.084 36.9589 142.326 36.4506 141.369C35.9422 140.412 35.6831 139.291 35.6831 138.035C35.6831 136.779 35.9422 135.663 36.4506 134.706C36.9589 133.749 37.6616 132.997 38.5437 132.464C39.4258 131.93 40.4575 131.656 41.6187 131.656C42.7799 131.656 43.8563 131.925 44.7384 132.464C45.6205 132.997 46.3133 133.754 46.8067 134.706C47.3 135.668 47.5492 136.789 47.5492 138.04C47.5492 139.904 46.996 141.449 45.9096 142.64H45.9146Z" fill="#656464"/>
<path d="M62.1264 127.081H56.8287V149.009H62.1264V127.081Z" fill="#656464"/>
<path d="M59.4802 117.194C58.5981 117.194 57.8505 117.498 57.2625 118.101C56.6794 118.704 56.3803 119.456 56.3803 120.338C56.3803 121.22 56.6794 121.973 57.2625 122.576C57.8505 123.179 58.5931 123.483 59.4802 123.483C60.3673 123.483 61.1497 123.179 61.7228 122.576C62.291 121.978 62.58 121.225 62.58 120.343C62.58 119.461 62.291 118.709 61.7228 118.111C61.1497 117.508 60.3972 117.199 59.4802 117.199V117.194Z" fill="#656464"/>
<path d="M81.7822 127.081L75.9712 140.134L70.1951 127.081H64.3194L74.2767 148.436L74.3266 148.541L74.4163 148.705C74.5708 149.029 75.1638 149.274 75.8715 149.274C76.5792 149.274 77.1424 149.039 77.3118 148.73L77.4264 148.546L87.4287 127.086H81.7772L81.7822 127.081Z" fill="#656464"/>
<path d="M16.7551 116.91C16.5259 116.506 15.8282 116.212 15.0009 116.212C14.1736 116.212 13.446 116.521 13.2317 116.935L13.0921 117.194L0 149.004H5.87077L8.28785 142.939H16.4511C17.5126 142.939 18.2452 142.411 18.4795 141.379L19.242 138.09H10.2215L14.956 126.209L19.6506 138.09L21.5644 142.939L23.9615 149.004H29.922L16.9246 117.194L16.7601 116.91H16.7551Z" fill="#656464"/>
<path d="M107.652 131.935C106.755 130.296 105.509 128.99 103.95 128.048C102.385 127.106 100.561 126.628 98.5323 126.628C96.504 126.628 94.5155 127.136 92.8011 128.133C91.0917 129.134 89.7162 130.505 88.7145 132.219C87.7127 133.934 87.2094 135.887 87.2094 138.04C87.2094 140.193 87.7227 142.157 88.7394 143.881C89.7561 145.611 91.1515 146.986 92.8958 147.968C94.6351 148.95 96.6236 149.453 98.8014 149.453C100.496 149.453 102.121 149.129 103.636 148.496C105.151 147.858 106.461 146.906 107.523 145.66L107.961 145.062L104.234 142.092L104.109 142.237C103.471 142.959 102.684 143.522 101.772 143.896C100.855 144.275 99.843 144.469 98.7616 144.469C97.5106 144.469 96.3893 144.195 95.4325 143.662C94.4806 143.129 93.733 142.356 93.2097 141.374C92.9954 140.966 92.821 140.527 92.6964 140.064C92.4373 139.301 92.2927 137.318 92.7263 135.663H92.7114C92.7313 135.603 92.7512 135.543 92.7712 135.484C92.7811 135.454 92.7861 135.419 92.7961 135.384C92.8011 135.369 92.811 135.359 92.816 135.344C92.9157 135.05 93.0303 134.766 93.1649 134.507C93.6583 133.57 94.361 132.827 95.253 132.309C96.1501 131.791 97.2216 131.527 98.4426 131.527C99.6636 131.527 100.591 131.761 101.388 132.219C102.175 132.678 102.858 133.351 103.292 134.213C103.506 134.641 103.661 135.075 103.77 135.663C103.79 135.823 103.79 135.942 103.79 135.942H94.2463L94.8793 138.698C95.0786 139.58 95.582 140.064 96.5089 140.064H107.927C108.51 140.064 108.714 139.969 108.824 139.421C108.868 139.157 108.908 138.902 108.938 138.668C108.983 138.289 109.008 137.911 109.008 137.547C109.008 135.459 108.554 133.57 107.662 131.935H107.652Z" fill="#656464"/>
<path d="M61.768 49.6698L54.9802 42.887C53.2409 41.1428 50.8388 40.0663 48.1825 40.0663C42.8799 40.0663 38.5789 44.3672 38.5789 49.6698C38.5789 54.9725 42.8799 59.2734 48.1825 59.2734C50.8388 59.2734 53.2409 58.1969 54.9802 56.4526L61.768 49.6648V49.6698Z" fill="#FF9D4D"/>
<path d="M73.0159 60.9229C70.6137 58.5208 67.1202 58.0872 65.2563 59.9511L61.8624 63.345H61.8574C58.3539 66.8386 53.5197 69.0114 48.1872 69.0114C37.5221 69.0114 28.8456 60.3349 28.8456 49.6698C28.8456 39.0047 37.5221 30.3282 48.1872 30.3282C53.5197 30.3282 58.3539 32.4961 61.8574 35.9996V35.9946L65.2513 39.3885C67.1202 41.2574 70.6087 40.8188 73.0109 38.4167L75.4977 35.9298L84.2142 27.2134C86.6163 24.8112 86.3372 21.208 83.5962 19.2046L59.3755 1.50258C56.6345 -0.500859 52.1492 -0.500859 49.4082 1.50258L25.1776 19.2096C22.4365 21.213 20.1939 25.6335 20.1939 29.0274V70.3172C20.1939 73.711 22.4365 78.1316 25.1776 80.135L49.4032 97.842C52.1442 99.8454 56.6295 99.8454 59.3706 97.842L83.5962 80.135C86.3372 78.1316 86.6163 74.5284 84.2142 72.1262L73.0109 60.9229H73.0159Z" fill="#FF9D4D"/>
<path d="M88.585 35.9698L74.8848 49.6699L88.585 63.375V35.9698Z" fill="#FF9D4D"/>
</svg>
